<svg xmlns="http://www.w3.org/2000/svg" viewBox="0 0 512 512" fill="currentColor">
<g transform="translate(0,512) scale(0.1,-0.1)">
<path d="M1295 4705 c-238 -44 -474 -179 -630 -362 -110 -128 -186 -272 -237
-448 l-23 -80 -3 -1205 c-2 -857 0 -1228 8 -1284 25 -173 113 -372 227 -516
147 -183 344 -312 579 -377 l99 -28 1245 0 1245 0 100 28 c55 15 150 52 210
82 284 140 484 386 572 701 l28 99 0 1245 0 1245 -28 100 c-107 388 -392 671
-792 787 l-80 23 -1225 2 c-969 1 -1240 -1 -1295 -12z m953 -522 c-3 -65 -4
-68 -28 -68 -24 0 -25 3 -28 68 l-3 67 31 0 31 0 -3 -67z m553 -113 c293 -15
453 -48 648 -133 157 -70 381 -227 381 -268 0 -28 -29 -23 -65 10 -99 95 -303
211 -465 265 -72 24 -271 69 -277 62 -2 -1 28 -15 65 -30 351 -137 662 -464
791 -829 57 -163 75 -272 75 -467 0 -142 -4 -194 -22 -277 -62 -287 -178 -499
-387 -708 -209 -209 -421 -325 -708 -387 -136 -29 -398 -32 -530 -5 -290 59
-525 184 -733 392 -205 203 -325 424 -386 708 -31 146 -31 408 0 554 59 272
173 490 361 685 191 200 409 328 669 394 177 45 264 50 583 34z m1449 -1190
l0 -30 -85 0 c-67 0 -87 3 -91 15 -14 37 2 45 91 45 l85 0 0 -30z m-3205 -340
c0 -25 -2 -25 -87 -28 l-88 -3 0 31 0 31 88 -3 c85 -3 87 -3 87 -28z m2103
-1437 c2 -110 4 -122 22 -128 26 -8 70 -62 70 -86 0 -14 -7 -19 -25 -19 -14 0
-25 5 -25 12 0 6 -7 20 -17 30 -31 35 -123 14 -123 -29 0 -7 -11 -13 -25 -13
-18 0 -25 5 -25 19 0 24 44 78 70 86 18 6 20 16 20 124 0 65 3 121 7 125 4 4
16 6 28 4 19 -3 20 -11 23 -125z"/>
<path d="M2445 3971 c-61 -16 -153 -48 -204 -70 -106 -46 -121 -49 -121 -23 0
13 19 27 60 47 33 16 58 30 56 32 -6 7 -181 -54 -238 -83 -141 -70 -288 -176
-388 -279 l-55 -56 60 28 60 28 885 0 885 0 60 -27 60 -28 -92 88 c-229 221
-517 349 -824 367 -83 5 -107 2 -204 -24z"/>
<path d="M1690 3511 c-69 -22 -130 -73 -166 -141 -18 -33 -19 -69 -19 -630 0
-591 0 -595 22 -635 25 -47 74 -95 123 -121 32 -17 66 -19 353 -22 l319 -3
112 65 c63 37 119 66 126 66 8 0 64 -29 126 -66 l113 -65 318 3 c287 3 321 5
353 22 49 26 98 74 123 121 22 40 22 44 22 635 0 591 0 595 -22 635 -25 47
-74 95 -123 121 -33 18 -77 19 -895 21 -473 1 -871 -2 -885 -6z m1438 -203
c23 -23 12 -43 -70 -125 l-83 -83 185 0 185 0 -83 83 c-45 45 -82 89 -82 98 0
19 20 39 39 39 20 0 261 -240 261 -260 0 -20 -240 -260 -260 -260 -20 0 -40
20 -40 39 0 9 37 53 82 98 l83 83 -185 0 -185 0 83 -83 c45 -45 82 -89 82 -98
0 -19 -20 -39 -39 -39 -20 0 -261 240 -261 260 0 20 240 260 260 260 9 0 21
-5 28 -12z m-324 -74 c9 -8 16 -24 16 -34 0 -10 -7 -26 -16 -34 -14 -14 -77
-16 -549 -16 -472 0 -535 2 -549 16 -9 8 -16 24 -16 34 0 10 7 26 16 34 14 14
77 16 549 16 472 0 535 -2 549 -16z m-322 -301 c22 -20 23 -41 1 -65 -15 -17
-40 -18 -386 -18 -331 0 -372 2 -389 17 -22 20 -23 41 -1 65 15 17 40 18 386
18 331 0 372 -2 389 -17z m894 -259 c19 -9 44 -31 57 -48 19 -27 22 -43 22
-136 0 -93 -3 -109 -22 -136 -41 -58 -69 -64 -283 -64 -214 0 -242 6 -283 64
-19 27 -22 43 -22 136 0 92 3 109 22 136 41 58 67 64 281 64 159 0 200 -3 228
-16z m-1062 -46 c20 -29 20 -34 -4 -58 -19 -19 -33 -20 -300 -20 -267 0 -281
1 -300 20 -11 11 -20 25 -20 30 0 6 9 19 20 30 19 19 33 20 304 20 283 0 285
0 300 -22z"/>
<path d="M2961 2637 c-57 -20 -76 -56 -76 -147 0 -91 19 -127 76 -147 45 -16
333 -16 378 0 57 20 76 56 76 147 0 64 -4 84 -21 107 -32 43 -72 52 -244 52
-94 0 -168 -5 -189 -12z m99 -107 c11 -11 20 -29 20 -40 0 -11 -9 -29 -20 -40
-11 -11 -29 -20 -40 -20 -11 0 -29 9 -40 20 -11 11 -20 29 -20 40 0 11 9 29
20 40 11 11 29 20 40 20 11 0 29 -9 40 -20z m260 -39 c0 -24 -19 -31 -80 -31
-61 0 -80 7 -80 31 0 17 8 19 80 19 72 0 80 -2 80 -19z"/>
<path d="M1393 3294 c-119 -224 -173 -509 -144 -760 20 -175 26 -160 26 74 0
214 2 234 29 347 15 66 44 161 63 210 59 153 64 167 60 178 -1 5 -17 -17 -34
-49z"/>
<path d="M3695 2743 l0 -608 -26 -56 c-34 -72 -96 -134 -168 -168 -55 -25 -61
-26 -309 -31 l-252 -5 127 -74 c141 -82 173 -106 173 -131 0 -19 -30 -50 -50
-50 -7 0 -113 59 -235 130 l-221 130 -174 0 -173 0 -223 -131 c-176 -103 -229
-130 -248 -125 -27 7 -41 35 -32 64 3 9 72 55 152 102 l146 85 -254 5 c-252 5
-253 5 -310 33 -72 35 -134 97 -167 167 l-26 55 -5 515 -5 515 -28 -85 c-15
-47 -37 -139 -49 -205 -18 -104 -20 -147 -16 -322 5 -190 4 -203 -12 -203 -10
0 -21 6 -23 13 -4 9 -6 9 -6 -2 -2 -29 63 -202 111 -292 182 -349 504 -593
898 -680 150 -34 390 -34 539 0 286 63 532 204 689 395 156 190 275 419 333
641 20 77 23 114 23 255 1 181 -13 267 -64 422 -24 72 -104 248 -113 248 -1 0
-2 -273 -2 -607z m-801 -1265 c8 -13 8 -23 0 -35 -10 -16 -39 -18 -329 -21
-327 -2 -345 0 -345 37 0 40 12 41 344 39 291 -3 320 -5 330 -20z"/>
<path d="M2540 1970 c-11 -7 -6 -10 20 -10 26 0 31 3 20 10 -8 5 -17 10 -20
10 -3 0 -12 -5 -20 -10z"/>
</g>
</svg>
